<svg width="38" height="37" viewBox="0 0 38 37" fill="none" xmlns="http://www.w3.org/2000/svg">
<g clip-path="url(#clip0_6610_21535)">
<path fill-rule="evenodd" clip-rule="evenodd" d="M9.43153 8.82599C11.6418 6.66151 14.5903 5.24799 17.865 5H19.9404C21.5027 5.11891 22.9913 5.50297 24.3609 6.10704H18.9027V8.09792H27.5689C27.8817 8.35863 28.1831 8.63332 28.4712 8.92136C22.0426 8.92136 15.8595 8.82599 9.43153 8.82599ZM28.3732 28.174C26.163 30.3385 23.2145 31.7514 19.9404 32H17.865C16.3027 31.8811 14.8141 31.497 13.4445 30.893H18.9027V28.9021H10.2359C9.92305 28.6414 9.62165 28.366 9.33361 28.0786C15.7622 28.0786 21.9453 28.174 28.3732 28.174ZM7.68863 26.0877C7.3796 25.6325 7.09728 25.1568 6.84484 24.6641H18.9027V22.9587H31.6893C31.2868 24.1128 30.7329 25.1956 30.0506 26.1838C22.5163 26.1838 15.2236 26.0884 7.68863 26.0884V26.0877ZM18.9027 20.6486V18.6577H5.36392V18.5331L5.36328 18.5V18.4606C5.36582 17.632 5.44276 16.8201 5.58838 16.0329H18.9027V14.3275H31.7859C31.9977 14.9818 32.1611 15.6583 32.2717 16.3521H18.9027V18.3429H32.4409V18.4676L32.4415 18.5006V18.5401C32.4389 19.3686 32.362 20.1806 32.2164 20.9678H18.9021V22.6732H6.01949C5.80775 22.0189 5.64433 21.3429 5.53369 20.6486H18.9027ZM30.1168 10.9123C30.4258 11.3675 30.7081 11.8432 30.9606 12.3359H18.9027V14.0413H6.11551C6.51801 12.8872 7.07184 11.8044 7.75412 10.8162C15.2885 10.8162 22.5812 10.9116 30.1161 10.9116L30.1168 10.9123Z" fill="#006AFF"/>
</g>
<defs>
<clipPath id="clip0_6610_21535">
<rect width="27.0782" height="27" fill="white" transform="translate(5.36328 5)"/>
</clipPath>
</defs>
</svg>
